<svg xmlns="http://www.w3.org/2000/svg" xmlns:xlink="http://www.w3.org/1999/xlink" viewBox="0 0 34.59 45.79"><defs><style>.cls-1,.cls-3{fill:none;}.cls-2{clip-path:url(#clip-path);}.cls-3{stroke:#fff;stroke-miterlimit:10;stroke-width:2px;}.cls-4{fill:#fff;}</style><clipPath id="clip-path" transform="translate(-16.68 -11.08)"><circle class="cls-1" cx="33.97" cy="33.97" r="33.97"/></clipPath></defs><g id="Layer_2" data-name="Layer 2"><g id="Layer_1-2" data-name="Layer 1"><g class="cls-2"><path class="cls-3" d="M19.72,55.87a2,2,0,0,1-2-2V31.43a2,2,0,0,1,2-2H48.23a2,2,0,0,1,2,2v22.4a2,2,0,0,1-2,2Z" transform="translate(-16.68 -11.08)"/><path class="cls-3" d="M44.16,29.39V22.26a10.19,10.19,0,0,0-20.37,0v7.13" transform="translate(-16.68 -11.08)"/><path class="cls-4" d="M37,40.59a3.06,3.06,0,1,0-5.09,2.27v2.82a2,2,0,1,0,4.07,0V42.86A3.06,3.06,0,0,0,37,40.59Z" transform="translate(-16.68 -11.08)"/></g></g></g></svg>