<svg xmlns="http://www.w3.org/2000/svg" xmlns:xlink="http://www.w3.org/1999/xlink" viewBox="0 0 29.9 38.05"><defs><style>.cls-1{fill:none;}.cls-2{clip-path:url(#clip-path);}.cls-3{fill:#55a530;}</style><clipPath id="clip-path" transform="translate(-19.03 -14.95)"><circle class="cls-1" cx="33.97" cy="33.97" r="33.97"/></clipPath></defs><g id="Layer_2" data-name="Layer 2"><g id="Layer_1-2" data-name="Layer 1"><g class="cls-2"><path id="login_account_enter_door" data-name="login account enter door" class="cls-3" d="M48.92,16.31V51.64A1.36,1.36,0,0,1,47.56,53H20.38A1.35,1.35,0,0,1,19,51.64V48.92h2.71v1.36H46.2V17.67H21.74v4.07H19V16.31A1.35,1.35,0,0,1,20.38,15H47.56A1.36,1.36,0,0,1,48.92,16.31Zm-20,23.49,1.93,1.93,6.8-6.79a1.36,1.36,0,0,0,0-1.92h0l-6.8-6.8-1.93,1.93,4.49,4.47H19v2.72H33.42Z" transform="translate(-19.03 -14.95)"/></g></g></g></svg>