<svg xmlns="http://www.w3.org/2000/svg" xmlns:xlink="http://www.w3.org/1999/xlink" viewBox="0 0 41.54 42.86"><defs><style>.cls-1{fill:none;}.cls-2{clip-path:url(#clip-path);}.cls-3{fill:#fff;}</style><clipPath id="clip-path" transform="translate(-13.2 -12.54)"><circle class="cls-1" cx="33.97" cy="33.97" r="33.97"/></clipPath></defs><g id="Layer_2" data-name="Layer 2"><g id="Layer_1-2" data-name="Layer 1"><g class="cls-2"><path class="cls-3" d="M48.66,39.87a20.69,20.69,0,0,0-9.78-5.51,11.47,11.47,0,1,0-9.83,0A20.81,20.81,0,0,0,13.2,54.55a.86.86,0,0,0,.86.85.85.85,0,0,0,.85-.85,19.06,19.06,0,0,1,38.11,0,.85.85,0,0,0,.85.85.87.87,0,0,0,.87-.85A20.64,20.64,0,0,0,48.66,39.87ZM24.2,24A9.76,9.76,0,1,1,34,33.78,9.77,9.77,0,0,1,24.2,24Z" transform="translate(-13.2 -12.54)"/></g></g></g></svg>