<svg xmlns="http://www.w3.org/2000/svg" xmlns:xlink="http://www.w3.org/1999/xlink" width="30" height="30" viewBox="0 0 30 30">
  <defs>
    <clipPath id="clip-path">
      <rect id="Rectangle_56" data-name="Rectangle 56" width="30" height="30" transform="translate(-11747 -32)" fill="#8d5a5a"/>
    </clipPath>
  </defs>
  <g id="Mask_Group_21" data-name="Mask Group 21" transform="translate(11747 32)" clip-path="url(#clip-path)">
    <g id="email_2_" data-name="email (2)" transform="translate(-11745.08 -35.68)">
      <path id="Path_7" data-name="Path 7" d="M21,25.77H5.212A3.076,3.076,0,0,1,2.08,22.762V13.688A3.076,3.076,0,0,1,5.212,10.68H21a3.076,3.076,0,0,1,3.132,3.008v9.074A3.076,3.076,0,0,1,21,25.77ZM5.212,11.742a1.988,1.988,0,0,0-2.027,1.946v9.074a1.988,1.988,0,0,0,2.027,1.946H21a1.988,1.988,0,0,0,2.027-1.946V13.688A1.988,1.988,0,0,0,21,11.742Z" transform="translate(0 0)" fill="#929594"/>
      <path id="Path_8" data-name="Path 8" d="M13.624,23.811a3.226,3.226,0,0,1-1.893-.606L3.117,16.949a.523.523,0,0,1-.232-.495.535.535,0,0,1,.341-.432.572.572,0,0,1,.559.08L12.4,22.365a2.116,2.116,0,0,0,2.45,0L23.463,16.1a.572.572,0,0,1,.559-.08.535.535,0,0,1,.341.432.523.523,0,0,1-.232.495l-8.614,6.256a3.226,3.226,0,0,1-1.893.606Z" transform="translate(-0.518 -3.424)" fill="#929594"/>
      <path id="Path_9" data-name="Path 9" d="M3.222,36.606a.553.553,0,0,1-.518-.342.517.517,0,0,1,.149-.586l6.786-5.814a.57.57,0,0,1,.782.043.517.517,0,0,1-.044.751L3.591,36.471A.551.551,0,0,1,3.222,36.606Zm20.528,0a.551.551,0,0,1-.369-.135l-6.786-5.814a.517.517,0,0,1-.044-.751.57.57,0,0,1,.782-.043l6.782,5.814a.517.517,0,0,1,.149.586.553.553,0,0,1-.518.342Z" transform="translate(-0.38 -12.316)" fill="#929594"/>
    </g>
  </g>
</svg>
