<svg xmlns="http://www.w3.org/2000/svg" xmlns:xlink="http://www.w3.org/1999/xlink" width="30" height="30" viewBox="0 0 30 30">
  <defs>
    <clipPath id="clip-path">
      <rect id="Rectangle_59" data-name="Rectangle 59" width="30" height="30" transform="translate(-11747 -102)" fill="#8d5a5a"/>
    </clipPath>
    <clipPath id="clip-path-2">
      <rect id="Rectangle_10" data-name="Rectangle 10" width="15.596" height="20.793" fill="none"/>
    </clipPath>
  </defs>
  <g id="Mask_Group_19" data-name="Mask Group 19" transform="translate(11747 102)" clip-path="url(#clip-path)">
    <g id="Group_44" data-name="Group 44" transform="translate(-11740 -97)">
      <g id="Group_4" data-name="Group 4" clip-path="url(#clip-path-2)">
        <path id="Path_10" data-name="Path 10" d="M48.944,83.954a1.116,1.116,0,0,0-1.9.79,1.1,1.1,0,0,0,.743,1.067v2.645a.372.372,0,1,0,.744,0V85.811a1.1,1.1,0,0,0,.743-1.067,1.078,1.078,0,0,0-.327-.79m-.788,1.162a.372.372,0,1,1,.372-.372.329.329,0,0,1-.372.372" transform="translate(-40.357 -71.749)"/>
        <path id="Path_11" data-name="Path 11" d="M15.224,7.424H13.367V5.568a5.368,5.368,0,0,0-1.624-3.944A5.368,5.368,0,0,0,7.8,0,5.364,5.364,0,0,0,3.853,1.625,5.374,5.374,0,0,0,2.229,5.57V7.424H.372A.33.33,0,0,0,0,7.8V19.308a1.432,1.432,0,0,0,1.485,1.485H14.112A1.432,1.432,0,0,0,15.6,19.308V7.8a.33.33,0,0,0-.372-.372m-12.1-1.7a4.516,4.516,0,0,1,1.37-3.307A4.508,4.508,0,0,1,7.8,1.04a4.508,4.508,0,0,1,3.307,1.372A4.508,4.508,0,0,1,12.478,5.72v1.8H3.121ZM14.633,19.033a.636.636,0,0,1-.719.72H1.681a.637.637,0,0,1-.72-.72V8.238H14.633Z" transform="translate(0)" fill="#929594"/>
        <path id="Path_12" data-name="Path 12" d="M48.944,83.954a1.116,1.116,0,0,0-1.9.79,1.1,1.1,0,0,0,.743,1.067v2.645a.372.372,0,1,0,.744,0V85.811a1.1,1.1,0,0,0,.743-1.067,1.078,1.078,0,0,0-.327-.79m-.788,1.162a.372.372,0,1,1,.372-.372.329.329,0,0,1-.372.372" transform="translate(-40.357 -71.749)"/>
        <path id="Path_13" data-name="Path 13" d="M48.944,83.954a1.116,1.116,0,0,0-1.9.79,1.1,1.1,0,0,0,.743,1.067v2.645a.372.372,0,1,0,.744,0V85.811a1.1,1.1,0,0,0,.743-1.067,1.078,1.078,0,0,0-.327-.79m-.788,1.162a.372.372,0,1,1,.372-.372.329.329,0,0,1-.372.372" transform="translate(-40.357 -71.749)" fill="#929594"/>
      </g>
    </g>
  </g>
</svg>
