<svg xmlns="http://www.w3.org/2000/svg" xmlns:xlink="http://www.w3.org/1999/xlink" width="24" height="24" viewBox="0 0 24 24">
  <defs>
    <clipPath id="clip-path">
      <path id="Path_1014" data-name="Path 1014" d="M0,0H24V24H0Z" fill="red"/>
    </clipPath>
  </defs>
  <g id="Mask_Group_82" data-name="Mask Group 82" clip-path="url(#clip-path)">
    <g id="chat-svgrepo-com" transform="translate(0 2)">
      <path id="Path_1012" data-name="Path 1012" d="M16.47,35.737a2.521,2.521,0,0,0,2.519-2.519V25.594a2.521,2.521,0,0,0-2.519-2.519H2.518A2.521,2.521,0,0,0,0,25.594v7.625a2.521,2.521,0,0,0,2.518,2.519H4.351v2.636a.792.792,0,0,0,1.353.56l3.2-3.2Z" transform="translate(0 -23.075)" fill="#777"/>
      <path id="Path_1013" data-name="Path 1013" d="M112.982,105.583h-1.274v3.55a3.79,3.79,0,0,1-3.786,3.786h-7.045L99.4,114.4a2.208,2.208,0,0,0,2.172,1.83H107.7l2.573,2.573a.792.792,0,0,0,1.353-.56v-2.013h1.355a2.207,2.207,0,0,0,2.2-2.2v-6.238A2.207,2.207,0,0,0,112.982,105.583Z" transform="translate(-91.452 -98.989)" fill="#777"/>
    </g>
  </g>
</svg>
