<svg xmlns="http://www.w3.org/2000/svg" xmlns:xlink="http://www.w3.org/1999/xlink" width="24" height="24" viewBox="0 0 24 24">
  <defs>
    <clipPath id="clip-path">
      <rect id="Rectangle_717" data-name="Rectangle 717" width="24" height="24" fill="#777"/>
    </clipPath>
  </defs>
  <g id="Mask_Group_83" data-name="Mask Group 83" opacity="0.8" clip-path="url(#clip-path)">
    <path id="Path_1015" data-name="Path 1015" d="M0,10.148C.462,9.806.873,9.4,1.3,9.027Q4.449,6.267,7.585,3.5C8.873,2.364,10.163,1.234,11.443.092c.157-.14.249-.143.4,0Q13.9,1.962,15.956,3.819l5.938,5.376c.309.28.616.565.93.84.113.1.1.177.012.282a1.305,1.305,0,0,1-1.488.358,2.969,2.969,0,0,1-1.059-.609q-4.233-3.793-8.462-7.588c-.144-.129-.223-.124-.368,0q-4.445,3.77-8.9,7.53a6.449,6.449,0,0,1-.541.432A1.339,1.339,0,0,1,0,10.282Z" transform="translate(0.548 1.934)" fill="#777"/>
    <path id="Path_1016" data-name="Path 1016" d="M96.812,131.844q0-2.125,0-4.251a.456.456,0,0,1,.168-.388q4.068-3.4,8.129-6.811a.245.245,0,0,1,.391,0q2.367,2.119,4.746,4.225l2.893,2.571a.468.468,0,0,1,.17.388q0,4.2,0,8.391c0,.545-.227.777-.777.778q-2.63.006-5.259,0c-.266,0-.286-.021-.286-.3.008-1.432.019-2.864.027-4.3,0-.645-.248-.9-.886-.905q-1.13-.006-2.26,0c-.5,0-.72.225-.721.728q0,2.228,0,4.453c0,.326,0,.327-.321.327l-5.347,0c-.482,0-.654-.172-.655-.665Q96.809,133.97,96.812,131.844Z" transform="translate(-93.181 -114.549)" fill="#777"/>
  </g>
</svg>
