<svg xmlns="http://www.w3.org/2000/svg" xmlns:xlink="http://www.w3.org/1999/xlink" width="15" height="15" viewBox="0 0 15 15">
  <defs>
    <clipPath id="clip-path">
      <rect id="Rectangle_17235" data-name="Rectangle 17235" width="15" height="15" transform="translate(10721 4278)" fill="#721212"/>
    </clipPath>
  </defs>
  <g id="Mask_Group_359" data-name="Mask Group 359" transform="translate(-10721 -4278)" opacity="0.8" clip-path="url(#clip-path)">
    <g id="Layer_3" data-name="Layer 3" transform="translate(10718.096 4276.489)">
      <path id="Path_5405" data-name="Path 5405" d="M7.728,17.484H8.863a.207.207,0,1,0,0-.414H7.728a.207.207,0,1,0,0,.414Zm-.891,1.41H8.755a.207.207,0,1,0,0-.414H6.837a.207.207,0,1,0,0,.414Zm-.872,1.41H8.807a.207.207,0,1,0,0-.414H5.965a.207.207,0,1,0,0,.414Zm3.1,1.2a.207.207,0,0,0-.207-.207h-3.9a.207.207,0,0,0,0,.414h3.9A.207.207,0,0,0,9.07,21.506Zm-.2,1.41a.207.207,0,0,0-.207-.207H6.052a.207.207,0,0,0,0,.414H8.66A.207.207,0,0,0,8.867,22.917Zm0,1.2H7.728a.207.207,0,0,0,0,.414H8.863a.207.207,0,1,0,0-.414Zm1.684-2.608a.746.746,0,0,0,.441-.145l.021-.019,2.125-2.055a.207.207,0,0,0-.226-.34l-2.55,1.1-.207.089a.17.17,0,0,0-.041.025.746.746,0,0,0,.443,1.346Z" transform="translate(0 -11.156)" fill="#777"/>
      <path id="Path_5406" data-name="Path 5406" d="M31.469,5.709a.205.205,0,0,0,.294,0l.621-.621a.2.2,0,0,0,0-.292l-.661-.663a.207.207,0,0,0-.292,0l-.621.621a.207.207,0,0,0,0,.292l.207.2-.437.435a5.36,5.36,0,0,0-2.9-1.348V4.123h.551a.207.207,0,0,0,.207-.207V3.207A.207.207,0,0,0,28.232,3H25.811a.207.207,0,0,0-.207.207v.719a.207.207,0,0,0,.207.207h.551v.18a4.873,4.873,0,0,0-.76.141.212.212,0,0,0,.106.41,4.706,4.706,0,0,1,.853-.143h.178v.244a.207.207,0,1,0,.414,0V4.7a4.911,4.911,0,0,1,2.071.555h0l-.124.207a.207.207,0,0,0,.358.207l.124-.207a4.913,4.913,0,0,1,1.526,1.52h0l-.226.13a.207.207,0,0,0,.207.358l.23-.133A4.867,4.867,0,0,1,31.9,9.421h-.275a.207.207,0,0,0,0,.414H31.9a4.933,4.933,0,0,1-.547,2.1l-.246-.143a.207.207,0,1,0-.207.358l.246.141h0a4.971,4.971,0,0,1-1.533,1.535h0l-.145-.251a.207.207,0,0,0-.358.207l.145.251a4.917,4.917,0,0,1-2.113.565h0v-.29a.207.207,0,1,0-.414,0v.29a4.824,4.824,0,0,1-1.025-.153.208.208,0,0,0-.106.4,5.364,5.364,0,0,0,5.261-8.869l.435-.435Z" transform="translate(-16.399)" fill="#777"/>
    </g>
  </g>
</svg>
