<svg xmlns="http://www.w3.org/2000/svg" xmlns:xlink="http://www.w3.org/1999/xlink" width="24" height="24" viewBox="0 0 24 24">
  <defs>
    <clipPath id="clip-path">
      <rect id="Rectangle_721" data-name="Rectangle 721" width="24" height="24" fill="#79c646"/>
    </clipPath>
  </defs>
  <g id="Mask_Group_87" data-name="Mask Group 87" opacity="0.8" clip-path="url(#clip-path)">
    <g id="Group_3345" data-name="Group 3345" transform="translate(4.017 1.29)">
      <path id="Path_1025" data-name="Path 1025" d="M2.808,0h11.7a.749.749,0,0,1,.439.76V16.882c0,.535-.236.771-.76.771H3.13c-.525,0-.749-.236-.749-.771V.76A.749.749,0,0,1,2.808,0ZM8.664,5.7H4.971a.61.61,0,1,0,0,1.21h7.3c.45,0,.749-.246.749-.61s-.3-.6-.749-.61H8.664Zm0,3.736h3.715a.61.61,0,1,0,0-1.21H5.024c-.428,0-.728.246-.728.6a.665.665,0,0,0,.728.621H8.653Zm0,2.5h3.618c.46,0,.771-.246.76-.621s-.364-.61-.792-.61H5.067c-.471,0-.771.236-.771.6s.3.621.781.621ZM6.791,4.443H8.6a.632.632,0,0,0,.664-.589.621.621,0,0,0-.632-.642H4.917a.61.61,0,0,0-.621.6.642.642,0,0,0,.621.61H6.769ZM11.18,14.473h1.188a.61.61,0,1,0,0-1.22H10a.835.835,0,0,0-.4.1.6.6,0,0,0-.278.632.621.621,0,0,0,.621.492Z" transform="translate(-2.376 0)" fill="#79c646"/>
      <path id="Path_1026" data-name="Path 1026" d="M15.921,18.623V3.829c0-.289,0-.289.289-.289h1.456c.567,0,.792.214.792.792V20.39c0,.557-.225.781-.792.781H6.682c-.578,0-.792-.225-.792-.792V18.923c0-.3,0-.3.3-.3h9.731" transform="translate(-2.128 0.249)" fill="#79c646"/>
    </g>
  </g>
</svg>
