<svg xmlns="http://www.w3.org/2000/svg" xmlns:xlink="http://www.w3.org/1999/xlink" width="24" height="24" viewBox="0 0 24 24">
  <defs>
    <clipPath id="clip-path">
      <rect id="Rectangle_764" data-name="Rectangle 764" width="24" height="24" transform="translate(-15053 3965)" fill="#79c646"/>
    </clipPath>
  </defs>
  <g id="Mask_Group_102" data-name="Mask Group 102" transform="translate(15053 -3965)" opacity="0.8" clip-path="url(#clip-path)">
    <path id="Path_1052" data-name="Path 1052" d="M12.255,21.569H9.305a.873.873,0,0,1-.474-.656c-.16-.7-.342-1.386-.508-2.082a.308.308,0,0,0-.234-.262,6.47,6.47,0,0,1-.987-.416.319.319,0,0,0-.348,0c-.508.314-1.021.616-1.535.924a.713.713,0,0,1-1.033-.131c-.525-.525-1.055-1.05-1.575-1.575a.713.713,0,0,1-.126-1.038c.3-.5.571-1.01.907-1.512a.337.337,0,0,0,0-.371A5.346,5.346,0,0,1,3,13.5a.388.388,0,0,0-.325-.28l-2.037-.5A.873.873,0,0,1,0,12.263V9.314A.873.873,0,0,1,.656,8.84c.69-.16,1.375-.342,2.06-.5a.359.359,0,0,0,.3-.262,3.783,3.783,0,0,1,.308-.759.416.416,0,0,0,0-.451C2.967,6.3,2.63,5.725,2.288,5.154A.7.7,0,0,1,2.4,4.139c.519-.525,1.027-1.044,1.563-1.563A.73.73,0,0,1,5.044,2.45c.542.32,1.084.645,1.62.976a.359.359,0,0,0,.411,0,5.774,5.774,0,0,1,1-.428.342.342,0,0,0,.251-.3c.171-.713.348-1.432.531-2.145a.668.668,0,0,1,.753-.571h2.231c.571,0,.753.143.884.69.171.685.342,1.375.508,2.06A.325.325,0,0,0,13.47,3a6.5,6.5,0,0,1,.964.411.32.32,0,0,0,.354,0c.525-.325,1.055-.639,1.586-.959a.736.736,0,0,1,1.073.131c.513.513,1.033,1.027,1.546,1.546A.719.719,0,0,1,19.124,5.2c-.308.519-.616,1.038-.936,1.552a.377.377,0,0,0,0,.428,5.272,5.272,0,0,1,.382.907.359.359,0,0,0,.308.268c.7.165,1.4.342,2.105.519a.69.69,0,0,1,.616.793V11.9c0,.536-.148.725-.673.85-.69.171-1.375.348-2.065.508a.365.365,0,0,0-.291.262,6.036,6.036,0,0,1-.388.93.3.3,0,0,0,0,.331c.325.536.65,1.073.964,1.609a.69.69,0,0,1-.12,1l-1.592,1.592A.7.7,0,0,1,16.4,19.1c-.519-.308-1.038-.616-1.552-.93a.337.337,0,0,0-.371,0,6.019,6.019,0,0,1-.987.416.354.354,0,0,0-.257.291c-.165.69-.342,1.375-.5,2.065a.873.873,0,0,1-.479.622Zm2.927-10.783a4.387,4.387,0,1,0-1.287,3.11A4.4,4.4,0,0,0,15.182,10.785Z" transform="translate(-15052 3966.021)" fill="#79c646"/>
  </g>
</svg>
