<svg xmlns="http://www.w3.org/2000/svg" xmlns:xlink="http://www.w3.org/1999/xlink" width="24" height="24" viewBox="0 0 24 24">
  <defs>
    <clipPath id="clip-path">
      <path id="Path_1011" data-name="Path 1011" d="M0,0H24V24H0Z" fill="#79c646"/>
    </clipPath>
  </defs>
  <g id="Mask_Group_81" data-name="Mask Group 81" opacity="0.8" clip-path="url(#clip-path)">
    <path id="Path_1010" data-name="Path 1010" d="M21.889,10.944A10.944,10.944,0,0,1,0,10.944,10.738,10.738,0,0,1,10.069.04,8.464,8.464,0,0,1,10.944,0c.3,0,.587.01.876.03v8.9A2.228,2.228,0,0,1,13.034,10.3a2.042,2.042,0,0,1,.1.647,2.189,2.189,0,1,1-3.064-2.01V6.656a4.377,4.377,0,1,0,5.253,4.288,4.325,4.325,0,0,0-1.065-2.855l1.114-2a6.564,6.564,0,1,1-5.3-1.662V2.239a8.758,8.758,0,1,0,6.387,1.91l1.084-1.94a10.912,10.912,0,0,1,4.348,8.736Z" transform="translate(1 1)" fill="#79c646"/>
  </g>
</svg>
