<svg xmlns="http://www.w3.org/2000/svg" xmlns:xlink="http://www.w3.org/1999/xlink" width="24" height="24" viewBox="0 0 24 24">
  <defs>
    <clipPath id="clip-path">
      <rect id="Rectangle_718" data-name="Rectangle 718" width="24" height="24" fill="#79c646"/>
    </clipPath>
  </defs>
  <g id="Mask_Group_84" data-name="Mask Group 84" opacity="0.8" clip-path="url(#clip-path)">
    <g id="Group_3344" data-name="Group 3344" transform="translate(0.751 3.464)">
      <g id="Group_3342" data-name="Group 3342">
        <path id="Path_1017" data-name="Path 1017" d="M3.38,21.814A6.856,6.856,0,0,1,3.8,20.327a6.334,6.334,0,0,1,4.524-3.61,7.885,7.885,0,0,1,5.035.322,5.973,5.973,0,0,1,3.767,4.4,6.107,6.107,0,0,1,.106,1.573c0,.126-.053.189-.194.181a1.063,1.063,0,0,0-.158,0H3.389Z" transform="translate(-3.38 -6.373)" fill="#79c646"/>
        <path id="Path_1018" data-name="Path 1018" d="M6.49,9.551A4.445,4.445,0,0,1,9.13,5.308a4.023,4.023,0,0,1,4.683,1.206,4.542,4.542,0,0,1-.37,6.161A3.934,3.934,0,0,1,10.626,13.8a4.216,4.216,0,0,1-3.987-3.23A3.785,3.785,0,0,1,6.49,9.551Z" transform="translate(-3.752 -5.002)" fill="#79c646"/>
      </g>
      <g id="Group_3343" data-name="Group 3343" transform="translate(11.883 1.258)">
        <path id="Path_1019" data-name="Path 1019" d="M23.978,21.2H20.458c-.211,0-.3-.043-.317-.223a5.412,5.412,0,0,0-.845-2.385,6.907,6.907,0,0,0-2.051-2.083c-.246-.172-.246-.172,0-.338a7.534,7.534,0,0,1,4.824-1.135,6.744,6.744,0,0,1,4.2,1.709,4.4,4.4,0,0,1,1.549,3.146v1.085c0,.165-.062.215-.264.215Z" transform="translate(-17.06 -6.887)" fill="#79c646"/>
        <path id="Path_1020" data-name="Path 1020" d="M25.073,9.9a3.521,3.521,0,0,1-2.227,3.116,3.468,3.468,0,0,1-4.26-1.276,3.873,3.873,0,0,1,1.03-5.431,3.521,3.521,0,0,1,4.665.88A4.172,4.172,0,0,1,25.073,9.9Z" transform="translate(-17.16 -5.783)" fill="#79c646"/>
      </g>
    </g>
  </g>
</svg>
