<svg xmlns="http://www.w3.org/2000/svg" xmlns:xlink="http://www.w3.org/1999/xlink" width="50" height="50" viewBox="0 0 50 50">
  <defs>
    <clipPath id="clip-path">
      <rect id="Rectangle_17336" data-name="Rectangle 17336" width="50" height="50" transform="translate(-7333 3013)" fill="#100909"/>
    </clipPath>
  </defs>
  <g id="Mask_Group_382" data-name="Mask Group 382" transform="translate(7333 -3013)" clip-path="url(#clip-path)">
    <g id="delete" transform="translate(-7329.186 3016.814)">
      <path id="Path_5495" data-name="Path 5495" d="M17.388,36.474a1.323,1.323,0,0,0,1.872,0L26.931,28.8,34.6,36.474A1.324,1.324,0,1,0,36.474,34.6L28.8,26.931l7.671-7.671A1.324,1.324,0,1,0,34.6,17.388l-7.671,7.671L19.26,17.388a1.324,1.324,0,1,0-1.872,1.872l7.671,7.671L17.388,34.6a1.324,1.324,0,0,0,0,1.872Z" transform="translate(-5.745 -5.745)" fill="#e34d59"/>
      <path id="Path_5496" data-name="Path 5496" d="M21.186,42.372A21.185,21.185,0,0,0,36.166,6.206a21.185,21.185,0,1,0-29.96,29.96A21.043,21.043,0,0,0,21.186,42.372ZM8.078,8.078A18.537,18.537,0,1,1,34.294,34.294,18.537,18.537,0,1,1,8.078,8.078Z" fill="#e34d59"/>
    </g>
  </g>
</svg>
