<svg xmlns="http://www.w3.org/2000/svg" xmlns:xlink="http://www.w3.org/1999/xlink" width="24" height="24" viewBox="0 0 24 24">
  <defs>
    <clipPath id="clip-path">
      <rect id="Rectangle_17241" data-name="Rectangle 17241" width="24" height="24" transform="translate(-15005 3928.719)" fill="#777"/>
    </clipPath>
  </defs>
  <g id="Mask_Group_360" data-name="Mask Group 360" transform="translate(15005 -3928.719)" opacity="0.5" clip-path="url(#clip-path)">
    <path id="Path_5426" data-name="Path 5426" d="M179.446,98.559a10.891,10.891,0,1,0,7.7,3.19A10.891,10.891,0,0,0,179.446,98.559Zm1.076,16.033h-2.05v-2.017h2.084Zm1.983-5.815a5.175,5.175,0,0,1-1.008.941l-.5.4a1.479,1.479,0,0,0-.538.739,3.052,3.052,0,0,0-.1.807H178.5a5.445,5.445,0,0,1,.235-1.614,2.859,2.859,0,0,1,.941-1.042l.5-.4a1.779,1.779,0,0,0,.4-.4,1.411,1.411,0,0,0,.269-.84,1.613,1.613,0,0,0-.3-.975,1.258,1.258,0,0,0-1.109-.437h0a1.244,1.244,0,0,0-1.143.538,2.05,2.05,0,0,0-.336,1.109H175.95a3.146,3.146,0,0,1,1.378-2.79,3.63,3.63,0,0,1,2.017-.538,4.336,4.336,0,0,1,2.588.739,2.555,2.555,0,0,1,1.042,2.218,2.522,2.522,0,0,1-.471,1.546Z" transform="translate(-15172.555 3831.16)" fill="#777"/>
  </g>
</svg>
