<svg xmlns="http://www.w3.org/2000/svg" xmlns:xlink="http://www.w3.org/1999/xlink" width="24" height="24" viewBox="0 0 24 24">
  <defs>
    <clipPath id="clip-path">
      <rect id="Rectangle_17241" data-name="Rectangle 17241" width="24" height="24" transform="translate(519 667)" fill="#975151"/>
    </clipPath>
  </defs>
  <g id="Mask_Group_361" data-name="Mask Group 361" transform="translate(-519 -667)" clip-path="url(#clip-path)">
    <g id="Group_10863" data-name="Group 10863" transform="translate(20828.047 6910.617)" opacity="0.5">
      <path id="Path_5427" data-name="Path 5427" d="M98.485,298.975l-5.5-5.5h0a.458.458,0,1,0-.646.646l-1.621,1.621a2.289,2.289,0,0,0,0,3.237l.325.325-.975.971a.458.458,0,0,0,0,.646l.325.325-.971.975a.458.458,0,1,0,.646.646l.971-.971.325.325h0a.458.458,0,0,0,.646,0l.971-.971.325.325h0a2.289,2.289,0,0,0,3.237,0l1.621-1.621a.458.458,0,1,0,.646-.646Z" transform="translate(-20396.688 -6524.257)" fill="#777"/>
      <path id="Path_5428" data-name="Path 5428" d="M220.948,223.724a.687.687,0,0,0-.971-.971L217.23,225.5l.971.971Z" transform="translate(-20519.637 -6456.291)" fill="#777"/>
      <path id="Path_5429" data-name="Path 5429" d="M310.747,313.525,308,316.272l.971.971,2.747-2.747h0a.687.687,0,0,0-.971-.971Z" transform="translate(-20606.844 -6543.5)" fill="#777"/>
      <path id="Path_5430" data-name="Path 5430" d="M325.087,11.792a.458.458,0,0,0-.646,0l-2.427,2.427-.325-.325h0a.458.458,0,0,0-.646,0L320,14.942l-.325-.325h0a2.289,2.289,0,0,0-3.237,0L314,17.048a.458.458,0,0,0-.646.646l.325.325v-.05l5.174,5.138.325.371h0a.486.486,0,0,0,.325.16.445.445,0,0,0,.325-.765l2.431-2.431a2.289,2.289,0,0,0,0-3.237l-.325-.325,1.049-1.049h0a.458.458,0,0,0,0-.646l-.325-.321,2.422-2.422a.458.458,0,0,0,0-.65Z" transform="translate(-20611.885 -6253.659)" fill="#777"/>
    </g>
  </g>
</svg>
