<svg xmlns="http://www.w3.org/2000/svg" width="24" height="24" viewBox="0 0 24 24">
  <g id="emoji_emotions_black_24dp_1_" data-name="emoji_emotions_black_24dp (1)" opacity="0.5">
    <g id="Group_556" data-name="Group 556">
      <rect id="Rectangle_643" data-name="Rectangle 643" width="24" height="24" fill="none"/>
    </g>
    <g id="Group_557" data-name="Group 557">
      <path id="Path_514" data-name="Path 514" d="M11.99,2A10,10,0,1,0,22,12,10,10,0,0,0,11.99,2ZM8.5,8A1.5,1.5,0,1,1,7,9.5,1.5,1.5,0,0,1,8.5,8ZM12,18a5.458,5.458,0,0,1-5-4H17A5.458,5.458,0,0,1,12,18Zm3.5-7A1.5,1.5,0,1,1,17,9.5,1.5,1.5,0,0,1,15.5,11Z" fill="#777"/>
    </g>
  </g>
</svg>
