<svg xmlns="http://www.w3.org/2000/svg" width="40" height="40" viewBox="0 0 40 40">
  <g id="Mobile" transform="translate(-594 -497)">
    <g id="Ellipse_1468" data-name="Ellipse 1468" transform="translate(594 497)" fill="#fff" stroke="#707070" stroke-width="0.5">
      <circle cx="20" cy="20" r="20" stroke="none"/>
      <circle cx="20" cy="20" r="19.75" fill="none"/>
    </g>
    <g id="Layer_2" data-name="Layer 2" transform="translate(608.559 506.507)">
      <g id="Layer_1" data-name="Layer 1" transform="translate(-0.059 -0.007)">
        <path id="Path_6351" data-name="Path 6351" d="M10.94,10.514v8.515a2.163,2.163,0,0,1-.121.765,1.866,1.866,0,0,1-1.556,1.163,2.12,2.12,0,0,1-.4.035H2.012a2.412,2.412,0,0,1-1.1-.264A1.715,1.715,0,0,1-.056,19.2c0-.064,0-.127,0-.191q0-8.516,0-17.031A1.942,1.942,0,0,1,.216.881,1.934,1.934,0,0,1,1.9.013c2.362-.022,4.725-.029,7.087,0A1.831,1.831,0,0,1,10.94,1.9Q10.941,6.209,10.94,10.514Zm-9.786-.35v7.53c0,.227,0,.228.236.228h8.1c.237,0,.237,0,.237-.228V2.665c0-.24,0-.241-.245-.241H1.4c-.244,0-.244,0-.244.241q0,3.75,0,7.5Zm4.294,9.994a.793.793,0,0,0,.811-.76.807.807,0,0,0-.823-.788.8.8,0,0,0-.807.785.747.747,0,0,0,.241.546.82.82,0,0,0,.578.217ZM5.439,1C5.118,1,4.8,1,4.477,1c-.182,0-.237.053-.236.21s.067.218.238.218q.962,0,1.924,0c.169,0,.235-.07.236-.221S6.585,1,6.4,1C6.082,1,5.761,1,5.439,1Z" transform="translate(0.059 0.007)" fill="#272525"/>
      </g>
    </g>
  </g>
</svg>
