<svg xmlns="http://www.w3.org/2000/svg" width="15" height="15" viewBox="0 0 15 15">
  <g id="Tick_2_" data-name="Tick (2)" transform="translate(-2.5 -2.5)">
    <path id="Path_5435" data-name="Path 5435" d="M10,2.5A7.5,7.5,0,1,0,17.5,10,7.5,7.5,0,0,0,10,2.5Z" fill="#fff"/>
    <path id="Path_5436" data-name="Path 5436" d="M13.79,7.87,8.81,12.85a.519.519,0,0,1-.39.15.534.534,0,0,1-.39-.15L6.2,11.02a.507.507,0,0,1,0-.72.469.469,0,0,1,.36-.15.442.442,0,0,1,.36.15l1.5,1.5,4.65-4.65A.469.469,0,0,1,13.43,7a.442.442,0,0,1,.36.15.526.526,0,0,1,0,.72h0Z" fill="#55a530"/>
  </g>
</svg>
