<svg xmlns="http://www.w3.org/2000/svg" xmlns:xlink="http://www.w3.org/1999/xlink" width="20" height="20" viewBox="0 0 20 20">
  <defs>
    <clipPath id="clip-path">
      <rect id="Rectangle_17456" data-name="Rectangle 17456" width="20" height="20" transform="translate(8295.285 4022.285)" fill="#fff"/>
    </clipPath>
  </defs>
  <g id="Mask_Group_474" data-name="Mask Group 474" transform="translate(-8295.285 -4022.285)" clip-path="url(#clip-path)">
    <g id="Group_12293" data-name="Group 12293" transform="translate(8296.889 4022.785)">
      <path id="Path_6352" data-name="Path 6352" d="M309.077,492.12a1.557,1.557,0,0,1-1.343,2.3,1.529,1.529,0,0,1-1.279-2.3Z" transform="translate(-299.337 -475.424)" fill="#55a530" fill-rule="evenodd"/>
      <path id="Path_6353" data-name="Path 6353" d="M103.628,16.187a1.12,1.12,0,0,1,0-2.239c1.279,0,1.343-4.286,1.343-5.757a5.957,5.957,0,0,1,4.286-6.141,1.7,1.7,0,1,1,3.326,0A5.957,5.957,0,0,1,116.87,8.19c0,1.471.064,5.757,1.343,5.757a1.12,1.12,0,0,1,0,2.239Zm3.582-7.676a.523.523,0,0,1-.512.576.471.471,0,0,1-.512-.512c-.064-1.6.384-3.646,1.855-4.478a.544.544,0,1,1,.512.959c-1.088.576-1.407,2.367-1.343,3.454Zm2.879-6.653a7.227,7.227,0,0,1,1.663,0,.85.85,0,1,0-1.663,0Z" transform="translate(-102.525 -0.002)" fill="#55a530" fill-rule="evenodd"/>
    </g>
  </g>
</svg>
