<svg xmlns="http://www.w3.org/2000/svg" xmlns:xlink="http://www.w3.org/1999/xlink" width="30" height="30" viewBox="0 0 30 30">
  <defs>
    <clipPath id="clip-path">
      <ellipse id="Ellipse_1369" data-name="Ellipse 1369" cx="14" cy="13" rx="14" ry="13" transform="translate(-2004 -2946)" fill="#e2e2e2" opacity="0.5"/>
    </clipPath>
  </defs>
  <g id="Group_10724" data-name="Group 10724" transform="translate(333 -1140)">
    <circle id="Ellipse_1399" data-name="Ellipse 1399" cx="15" cy="15" r="15" transform="translate(-333 1140)" fill="rgba(255,255,255,0)"/>
    <g id="Mask_Group_286" data-name="Mask Group 286" transform="translate(1672 4088)" opacity="0.5" clip-path="url(#clip-path)">
      <path id="sms_FILL0_wght300_GRAD0_opsz40" d="M8.69,10.752a.766.766,0,0,0,.541-.207.64.64,0,0,0,.223-.483.661.661,0,0,0-.223-.5.766.766,0,0,0-.541-.207.731.731,0,0,0-.531.207.676.676,0,0,0-.212.5.655.655,0,0,0,.212.483A.731.731,0,0,0,8.69,10.752Zm3.567,0a.766.766,0,0,0,.541-.207.64.64,0,0,0,.223-.483.661.661,0,0,0-.223-.5.766.766,0,0,0-.541-.207.74.74,0,0,0-.52.207.661.661,0,0,0-.223.5.64.64,0,0,0,.223.483A.74.74,0,0,0,12.257,10.752Zm3.5,0a.766.766,0,0,0,.541-.207.64.64,0,0,0,.223-.483.661.661,0,0,0-.223-.5.766.766,0,0,0-.541-.207.74.74,0,0,0-.52.207.661.661,0,0,0-.223.5.64.64,0,0,0,.223.483A.74.74,0,0,0,15.76,10.752ZM4.167,18.8V5.409a1.154,1.154,0,0,1,.393-.877A1.338,1.338,0,0,1,5.5,4.167H18.966a1.338,1.338,0,0,1,.945.365,1.154,1.154,0,0,1,.393.877v9.345a1.155,1.155,0,0,1-.393.877,1.338,1.338,0,0,1-.945.365H7.182Zm1.061-2.405,1.486-1.38H18.966a.286.286,0,0,0,.2-.069.243.243,0,0,0,.074-.187V5.409a.243.243,0,0,0-.074-.187.285.285,0,0,0-.2-.069H5.5a.285.285,0,0,0-.2.069.243.243,0,0,0-.074.187Zm0-10.982v0Z" transform="translate(-2002.235 -2943.667)" fill="#777"/>
    </g>
  </g>
</svg>
