<svg xmlns="http://www.w3.org/2000/svg" xmlns:xlink="http://www.w3.org/1999/xlink" width="50" height="50" viewBox="0 0 50 50">
  <defs>
    <clipPath id="clip-path">
      <rect id="Rectangle_17432" data-name="Rectangle 17432" width="50" height="50" transform="translate(8295 4022)" fill="#fff"/>
    </clipPath>
  </defs>
  <g id="Mask_Group_451" data-name="Mask Group 451" transform="translate(-8295 -4022)" clip-path="url(#clip-path)">
    <g id="Group_12085" data-name="Group 12085" transform="translate(8299.466 4023.769)">
      <path id="Path_6291" data-name="Path 6291" d="M313.165,492.12a3.807,3.807,0,0,1-3.285,5.632,3.739,3.739,0,0,1-3.129-5.632Z" transform="translate(-289.346 -451.289)" fill="#55a530" fill-rule="evenodd"/>
      <path id="Path_6292" data-name="Path 6292" d="M105.223,39.582c-3.6,0-3.6-5.475,0-5.475,3.129,0,3.285-10.482,3.285-14.08,0-8.448,4.85-13.454,10.482-15.018a4.155,4.155,0,1,1,8.135,0c5.632,1.564,10.482,6.57,10.482,15.018,0,3.6.157,14.08,3.285,14.08,3.6,0,3.6,5.475,0,5.475Zm8.761-18.773a1.278,1.278,0,0,1-1.252,1.408,1.152,1.152,0,0,1-1.252-1.252c-.157-3.911.939-8.918,4.537-10.951a1.33,1.33,0,1,1,1.252,2.346c-2.66,1.408-3.442,5.788-3.285,8.448Zm7.04-16.27a17.673,17.673,0,0,1,4.067,0,2.078,2.078,0,1,0-4.067,0Z" transform="translate(-102.525 -0.002)" fill="#55a530" fill-rule="evenodd"/>
    </g>
  </g>
</svg>
